<svg width="54" height="56" viewBox="0 0 54 56" fill="none" xmlns="http://www.w3.org/2000/svg">
<path d="M17.8642 19.8824L43.502 33.6294L41.8374 36.734L18.9535 24.4637L12.5633 36.3813L9.80926 34.9046L17.8642 19.8824Z" fill="white"/>
<path d="M11 20.4773L40.0909 20.4773V16.9545L14.125 16.9545L14.125 3.43182H11L11 20.4773Z" fill="white"/>
<rect x="6.5" y="0.5" width="39" height="39" rx="2.5" stroke="white"/>
<path d="M15.5284 16V11.6364H16.0568V15.5312H18.0852V16H15.5284ZM20.2074 16.0682C19.892 16.0682 19.62 15.9986 19.3913 15.8594C19.1641 15.7188 18.9886 15.5227 18.8651 15.2713C18.7429 15.0185 18.6818 14.7244 18.6818 14.3892C18.6818 14.054 18.7429 13.7585 18.8651 13.5028C18.9886 13.2457 19.1605 13.0455 19.3807 12.902C19.6023 12.7571 19.8608 12.6847 20.1563 12.6847C20.3267 12.6847 20.495 12.7131 20.6612 12.7699C20.8274 12.8267 20.9787 12.919 21.1151 13.0469C21.2514 13.1733 21.3601 13.3409 21.4411 13.5497C21.522 13.7585 21.5625 14.0156 21.5625 14.321V14.5341H19.0398V14.0994H21.0511C21.0511 13.9148 21.0142 13.75 20.9403 13.6051C20.8679 13.4602 20.7642 13.3459 20.6293 13.2621C20.4957 13.1783 20.3381 13.1364 20.1563 13.1364C19.956 13.1364 19.7827 13.1861 19.6364 13.2855C19.4915 13.3835 19.38 13.5114 19.3018 13.669C19.2237 13.8267 19.1847 13.9957 19.1847 14.1761V14.4659C19.1847 14.7131 19.2273 14.9226 19.3125 15.0945C19.3991 15.2649 19.5192 15.3949 19.6726 15.4844C19.826 15.5724 20.0043 15.6165 20.2074 15.6165C20.3395 15.6165 20.4588 15.598 20.5653 15.5611C20.6733 15.5227 20.7663 15.4659 20.8445 15.3906C20.9226 15.3139 20.983 15.2187 21.0256 15.1051L21.5114 15.2415C21.4602 15.4062 21.3743 15.5511 21.2536 15.6761C21.1328 15.7997 20.9837 15.8963 20.8061 15.9659C20.6286 16.0341 20.429 16.0682 20.2074 16.0682ZM24.9039 12.7273L23.6937 16H23.1824L21.9721 12.7273H22.5176L23.421 15.3352H23.4551L24.3585 12.7273H24.9039ZM26.8226 16.0682C26.5073 16.0682 26.2353 15.9986 26.0066 15.8594C25.7793 15.7188 25.6039 15.5227 25.4803 15.2713C25.3581 15.0185 25.2971 14.7244 25.2971 14.3892C25.2971 14.054 25.3581 13.7585 25.4803 13.5028C25.6039 13.2457 25.7757 13.0455 25.9959 12.902C26.2175 12.7571 26.476 12.6847 26.7715 12.6847C26.9419 12.6847 27.1103 12.7131 27.2765 12.7699C27.4427 12.8267 27.5939 12.919 27.7303 13.0469C27.8667 13.1733 27.9753 13.3409 28.0563 13.5497C28.1373 13.7585 28.1777 14.0156 28.1777 14.321V14.5341H25.655V14.0994H27.6664C27.6664 13.9148 27.6294 13.75 27.5556 13.6051C27.4831 13.4602 27.3794 13.3459 27.2445 13.2621C27.111 13.1783 26.9533 13.1364 26.7715 13.1364C26.5712 13.1364 26.3979 13.1861 26.2516 13.2855C26.1067 13.3835 25.9952 13.5114 25.9171 13.669C25.839 13.8267 25.7999 13.9957 25.7999 14.1761V14.4659C25.7999 14.7131 25.8425 14.9226 25.9277 15.0945C26.0144 15.2649 26.1344 15.3949 26.2878 15.4844C26.4412 15.5724 26.6195 15.6165 26.8226 15.6165C26.9547 15.6165 27.074 15.598 27.1806 15.5611C27.2885 15.5227 27.3816 15.4659 27.4597 15.3906C27.5378 15.3139 27.5982 15.2187 27.6408 15.1051L28.1266 15.2415C28.0755 15.4062 27.9895 15.5511 27.8688 15.6761C27.748 15.7997 27.5989 15.8963 27.4213 15.9659C27.2438 16.0341 27.0442 16.0682 26.8226 16.0682ZM29.4455 11.6364V16H28.9427V11.6364H29.4455Z" fill="white"/>
<path d="M17.9263 29.5808L19.9162 25.6973L20.3865 25.9382L18.6103 29.4046L20.4155 30.3296L20.2018 30.7467L17.9263 29.5808ZM20.8692 31.0888L22.3617 28.1762L22.8092 28.4055L21.3168 31.3181L20.8692 31.0888ZM22.838 27.8073C22.7508 27.7626 22.6908 27.6944 22.658 27.6026C22.6265 27.5114 22.6321 27.4241 22.6749 27.3407C22.7177 27.2573 22.7852 27.2017 22.8776 27.174C22.9713 27.147 23.0617 27.1558 23.1489 27.2005C23.2362 27.2452 23.2955 27.3131 23.327 27.4043C23.3598 27.4961 23.3548 27.5837 23.312 27.6672C23.2693 27.7506 23.2011 27.8058 23.1074 27.8329C23.015 27.8605 22.9252 27.852 22.838 27.8073ZM24.9259 29.4901L24.7316 29.8693L23.1615 29.0648L23.3558 28.6855L24.9259 29.4901ZM22.3336 31.8391L24.0321 28.5245C24.1176 28.3576 24.228 28.2387 24.3634 28.1676C24.4988 28.0965 24.6433 28.0652 24.7969 28.0737C24.9506 28.0822 25.097 28.1221 25.236 28.1934C25.346 28.2497 25.4312 28.3046 25.4917 28.3579C25.5521 28.4112 25.5955 28.4542 25.6219 28.4869L25.2947 28.8076C25.2759 28.7884 25.2491 28.7627 25.2145 28.7306C25.1811 28.6991 25.1322 28.6669 25.0678 28.6339C24.9199 28.5581 24.7939 28.5406 24.69 28.5815C24.5873 28.6231 24.499 28.7159 24.4252 28.86L22.7811 32.0684L22.3336 31.8391ZM26.8197 30.4605L26.6254 30.8398L25.116 30.0663L25.3103 29.6871L26.8197 30.4605ZM26.1078 29.2147L26.5554 29.444L25.1328 32.2201C25.0681 32.3465 25.0378 32.4507 25.0421 32.5327C25.0483 32.6141 25.0749 32.6804 25.1221 32.7317C25.1711 32.7824 25.2285 32.8245 25.2943 32.8582C25.3436 32.8835 25.3853 32.9017 25.4195 32.9128C25.4543 32.9227 25.4822 32.9306 25.5031 32.9365L25.3882 33.3852C25.352 33.381 25.3038 33.3707 25.2436 33.3542C25.1828 33.339 25.1106 33.31 25.0272 33.2672C24.9008 33.2025 24.7908 33.1118 24.6973 32.9953C24.6051 32.8794 24.5476 32.7454 24.525 32.5933C24.5036 32.4419 24.5364 32.2815 24.6232 32.1121L26.1078 29.2147ZM26.0004 33.7181L27.4929 30.8055L27.9404 31.0348L26.448 33.9474L26.0004 33.7181ZM27.9692 30.4366C27.882 30.3919 27.822 30.3237 27.7892 30.2319C27.7577 30.1407 27.7633 30.0534 27.8061 29.97C27.8489 29.8866 27.9164 29.831 28.0088 29.8033C28.1025 29.7763 28.1929 29.7851 28.2801 29.8298C28.3674 29.8745 28.4267 29.9424 28.4582 30.0336C28.491 30.1254 28.486 30.213 28.4432 30.2965C28.4005 30.3799 28.3323 30.4351 28.2386 30.4622C28.1462 30.4898 28.0564 30.4813 27.9692 30.4366ZM28.6129 32.8446L27.7151 34.5967L27.2676 34.3674L28.7601 31.4548L29.1924 31.6763L28.9592 32.1314L28.9971 32.1508C29.1412 32.0379 29.3057 31.9722 29.4908 31.9537C29.6765 31.9339 29.8793 31.9804 30.0993 32.0931C30.2965 32.1942 30.4483 32.323 30.5548 32.4797C30.6619 32.6352 30.7147 32.8155 30.7133 33.0207C30.7126 33.2246 30.6487 33.4504 30.5218 33.6982L29.5734 35.5489L29.1259 35.3196L30.0587 33.4992C30.1759 33.2704 30.2079 33.0617 30.1545 32.8731C30.1017 32.6833 29.9717 32.5353 29.7643 32.429C29.6215 32.3558 29.4779 32.3214 29.3337 32.3257C29.1907 32.3306 29.0565 32.376 28.9312 32.4618C28.8058 32.5476 28.6997 32.6752 28.6129 32.8446ZM30.9761 37.7233C30.7599 37.6125 30.5883 37.4895 30.4613 37.3542C30.3337 37.2201 30.241 37.0817 30.1834 36.9388C30.1263 36.7978 30.0934 36.6613 30.0845 36.529L30.5693 36.4614C30.5825 36.5352 30.6026 36.6221 30.6296 36.7221C30.6559 36.8234 30.7098 36.9269 30.7914 37.0325C30.8735 37.14 31.0025 37.2388 31.1782 37.3289C31.4133 37.4493 31.6365 37.4919 31.8478 37.4565C32.059 37.4211 32.2268 37.282 32.3512 37.0393L32.6544 36.4477L32.6164 36.4283C32.5564 36.4645 32.4759 36.5063 32.3751 36.5536C32.2761 36.6002 32.1549 36.6251 32.0113 36.6281C31.8696 36.6305 31.7039 36.5832 31.5143 36.486C31.2792 36.3655 31.0966 36.2017 30.9665 35.9946C30.8376 35.7881 30.7733 35.5508 30.7734 35.2828C30.7748 35.0153 30.8532 34.7299 31.0086 34.4265C31.1615 34.1282 31.3471 33.8953 31.5654 33.7278C31.7843 33.5591 32.0184 33.462 32.2677 33.4365C32.5176 33.4097 32.7652 33.4592 33.0105 33.5848C33.2001 33.682 33.3343 33.7907 33.4132 33.9109C33.494 34.0305 33.5436 34.1454 33.5622 34.2554C33.5828 34.3649 33.5965 34.4533 33.6035 34.5208L33.649 34.5441L33.886 34.0814L34.3184 34.3029L32.7832 37.299C32.6549 37.5493 32.4937 37.7237 32.2996 37.8221C32.1062 37.9225 31.8952 37.9604 31.6667 37.9359C31.4389 37.9133 31.2087 37.8425 30.9761 37.7233ZM31.781 36.1151C31.9605 36.2071 32.1332 36.2437 32.2992 36.225C32.4652 36.2063 32.62 36.1364 32.7635 36.0152C32.907 35.894 33.0338 35.726 33.1439 35.5111C33.2514 35.3012 33.3147 35.0998 33.3338 34.9069C33.3528 34.7139 33.3237 34.5402 33.2465 34.3857C33.1692 34.2312 33.0396 34.1073 32.8576 34.0141C32.6679 33.9169 32.4853 33.884 32.3097 33.9153C32.1353 33.9472 31.975 34.0279 31.8289 34.1573C31.684 34.2874 31.5611 34.451 31.46 34.6482C31.3564 34.8505 31.2963 35.0456 31.2799 35.2334C31.2653 35.4207 31.2979 35.5906 31.3777 35.7433C31.4595 35.8953 31.5939 36.0192 31.781 36.1151Z" fill="white"/>
</svg>
